<svg width="131" height="42" viewBox="0 0 131 42" fill="none" xmlns="http://www.w3.org/2000/svg">
<path d="M11.1083 36H5.54216V7.13835H11.1083V36ZM23.9811 36.6185C17.4666 36.6185 13.1373 32.248 13.1373 25.6923C13.1373 19.1366 17.4666 14.7661 23.9811 14.7661C30.4956 14.7661 34.8248 19.1366 34.8248 25.6923C34.8248 32.248 30.4956 36.6185 23.9811 36.6185ZM23.9811 31.7944C26.9909 31.7944 29.0113 29.3618 29.0113 25.6923C29.0113 21.9815 26.9909 19.5901 23.9811 19.5901C20.9712 19.5901 18.9509 21.9815 18.9509 25.6923C18.9509 29.3618 20.9712 31.7944 23.9811 31.7944ZM40.3961 36.6185C33.8817 36.6185 29.5524 32.248 29.5524 25.6923C29.5524 19.1366 33.8817 14.7661 40.3961 14.7661C46.9106 14.7661 51.2399 19.1366 51.2399 25.6923C51.2399 32.248 46.9106 36.6185 40.3961 36.6185ZM40.3961 31.7944C43.406 31.7944 45.4263 29.3618 45.4263 25.6923C45.4263 21.9815 43.406 19.5901 40.3961 19.5901C37.3863 19.5901 35.366 21.9815 35.366 25.6923C35.366 29.3618 37.3863 31.7944 40.3961 31.7944ZM68.1497 28.1249C70.9946 29.5267 73.0974 32.248 73.922 36H67.3663C66.8716 32.4129 64.7688 30.2277 62.0475 29.7741V26.187C64.8925 26.187 66.7066 24.6203 66.7066 22.4763C66.7066 20.6209 65.3872 19.6313 63.4906 19.6313C60.6457 19.6313 58.6254 22.0227 58.6254 25.8572V36H53.0592V7.13835H58.6254V19.0541C59.7798 16.3741 62.3361 14.7661 65.6759 14.7661C69.9639 14.7661 72.5202 17.3636 72.5202 21.3218C72.5202 24.4553 70.871 26.888 68.1497 28.1249ZM78.2545 11.8799C76.8939 11.8799 75.8631 10.8491 75.8631 9.48851C75.8631 8.16912 76.8939 7.13835 78.2545 7.13835C79.5739 7.13835 80.6047 8.16912 80.6047 9.48851C80.6047 10.8491 79.5739 11.8799 78.2545 11.8799ZM79.8213 36H76.6877V15.3845H79.8213V36ZM94.82 14.8898C101.376 14.8898 101.376 21.3218 101.376 24.744V36H98.2422V24.9089C98.2422 22.0227 98.2422 17.8996 93.8717 17.8996C89.996 17.8996 87.3572 21.1569 87.3572 26.0633V36H84.2237V15.3845H87.3572V19.4252C88.8828 16.5802 91.5628 14.8898 94.82 14.8898ZM120.675 19.0129V7.13835H123.809V36H120.675V32.3717C119.109 34.9692 116.552 36.4948 113.336 36.4948C107.894 36.4948 104.101 32.2068 104.101 25.6923C104.101 19.219 107.853 14.8898 113.336 14.8898C116.593 14.8898 119.15 16.4153 120.675 19.0129ZM114.12 33.6086C118.119 33.6086 120.799 30.4338 120.799 25.6923C120.799 20.9507 118.119 17.7759 114.12 17.7759C110.12 17.7759 107.44 20.9507 107.44 25.6923C107.44 30.4338 110.12 33.6086 114.12 33.6086Z" fill="#4E080C"/>
</svg>
